HIERARCHY
ROOT pelvis
{
  OFFSET 0 100 0
  CHANNELS 6 Xposition Yposition Zposition Zrotation Xrotation Yrotation
  JOINT pelvis_right_femur
  {
    OFFSET -10.78128 -3.44521 -0.5502486
    CHANNELS 3 Zrotation Xrotation Yrotation
    JOINT right_femur_tibia
    {
      OFFSET -0.8047443 -44.0398 -0.1307829
      CHANNELS 3 Zrotation Xrotation Yrotation
      JOINT right_tibia_foot
      {
        OFFSET 3.006224 -47.83518 -5
        CHANNELS 3 Zrotation Xrotation Yrotation
        End Site
        {
          OFFSET 0 -5 15
        }
      }
    }
  }
  JOINT pelvis_left_femur
  {
    OFFSET 10.78128 -3.44521 -0.5502486
    CHANNELS 3 Zrotation Xrotation Yrotation
    JOINT left_femur_tibia
    {
      OFFSET 0.8047443 -44.0398 -0.1307829
      CHANNELS 3 Zrotation Xrotation Yrotation
      JOINT left_tibia_foot
      {
        OFFSET -4.370144 -48.10324 -4.275266
        CHANNELS 3 Zrotation Xrotation Yrotation
        End Site
        {
          OFFSET 0 -5 15
        }
      }
    }
  }
  JOINT pelvis_spine1
  {
    OFFSET 0 6.468898 -3.129235
    CHANNELS 3 Zrotation Xrotation Yrotation
    JOINT spine1
    {
      OFFSET 0 23.15396 4.99043
      CHANNELS 3 Zrotation Xrotation Yrotation
      JOINT spine2
      {
        OFFSET 0 20.79997 -5.064912
        CHANNELS 3 Zrotation Xrotation Yrotation
        JOINT neck
        {
          OFFSET 0 14.38658 9.616178
          CHANNELS 3 Zrotation Xrotation Yrotation
          End Site
          {
            OFFSET 0 20 0
          }
        }
      }
      JOINT right_manubrium
      {
        OFFSET -5.722621 16.35077 3.967754
        CHANNELS 3 Zrotation Xrotation Yrotation
        JOINT right_clavicle
        {
          OFFSET -13.16364 1.694482 -4.693211
          CHANNELS 3 Zrotation Xrotation Yrotation
          JOINT right_humerus
          {
            OFFSET -28.5034 -0.3100689 -2.792744
            CHANNELS 3 Zrotation Xrotation Yrotation
            JOINT right_radius
            {
              OFFSET -25.15693 0.02248979 -1.271978
              CHANNELS 3 Zrotation Xrotation Yrotation
              End Site
              {
                OFFSET -15 0 0
              }
            }
          }
        }
      }
      JOINT left_manubrium
      {
        OFFSET 5.722621 16.35077 3.967754
        CHANNELS 3 Zrotation Xrotation Yrotation
        JOINT left_clavicle
        {
          OFFSET 13.16364 1.694482 -4.693211
          CHANNELS 3 Zrotation Xrotation Yrotation
          JOINT left_humerus
          {
            OFFSET 29.39168 -1.063119 -2.237045
            CHANNELS 3 Zrotation Xrotation Yrotation
            JOINT left_radius
            {
              OFFSET 24.59957 -0.9528479 0.9047498
              CHANNELS 3 Zrotation Xrotation Yrotation
              End Site
              {
                OFFSET 15 -0 -0
              }
            }
          }
        }
      }
    }
  }
}
MOTION
Frames: 15
Frame Time: 0.0416666666667
978.1228 108.816 2419.66 6.383166 -8.234457 35.6082 -0.103261 -7.476512 -4.103765 -0 39.49608 -0 -11.70358 10.78433 0.8280248 -4.768401 5.918915 -11.71659 -0 12.99568 -0 -2.585632 -16.34972 17.8436 -0.3576711 -0.1396608 4.917515 -0.6797088 14.10947 -5.796072 1.179088 22.7639 4.484818 4.40667 -17.95955 4.246317 -0.6701676 -21.60005 11.71647 91.36671 26.36078 -16.34878 -0 0 15.05511 -21.86948 8.835842 6.311742 5.994019 -24.53566 -8.817495 -87.97002 9.487423 17.86227 0 0 -13.93877 16.17102 14.31473 -10.18975
981.4528 108.6227 2423.707 6.016891 -7.602911 35.99233 -0.143704 -11.4027 -4.982012 -0 32.83058 -0 -11.00191 8.34353 0.1838293 -4.846268 8.338943 -11.29828 -0 11.78327 -0 -2.55841 -17.80442 16.97635 -0.3587671 -0.2002996 4.908045 -0.5614358 14.15526 -6.037601 1.106419 22.69308 4.468722 4.389455 -18.05539 4.151342 -0.8132786 -21.51623 11.71825 91.71103 26.21696 -16.94209 -0 0 14.8418 -21.71226 8.793339 5.942892 6.124028 -24.89253 -8.868637 -87.65861 9.313581 17.34627 0 0 -15.04021 16.33641 14.16581 -10.54117
984.722 108.0366 2427.75 5.592959 -6.739693 36.26928 -0.2055575 -14.84119 -5.740957 -0 26.1369 -0 -10.58193 6.265757 -0.1183576 -5.054601 10.4214 -10.98044 -0 10.84025 -0 -2.175004 -19.02841 16.28251 -0.3619724 -0.2789107 4.893377 -0.4155892 14.19341 -6.331844 1.016922 22.60696 4.454863 4.366033 -18.17753 4.042686 -0.9946734 -21.40839 11.71371 92.1249 26.04232 -17.65522 -0 0 14.58163 -21.52389 8.735408 5.50175 6.292314 -25.31856 -8.908544 -87.27773 9.100932 16.70612 0 0 -16.39916 16.52946 13.984 -10.96899
987.9176 107.153 2431.769 5.036023 -5.64096 36.45067 -0.1706922 -18.04738 -6.234573 -0 19.96673 -0 -10.42339 4.512879 -0.1262725 -5.358568 12.2106 -10.82396 -0 10.11221 -0 -1.211079 -19.96303 15.86154 -0.3632865 -0.3899365 4.896188 -0.2337838 14.23296 -6.690099 0.9010059 22.49359 4.432726 4.32886 -18.32284 3.902586 -1.228356 -21.31541 11.70747 92.60791 25.81043 -18.48739 -0 0 14.32811 -21.30125 8.657188 4.982671 6.489172 -25.82849 -8.941005 -86.84998 8.826721 16.01786 0 0 -18.00112 16.73068 13.75404 -11.45254
991.0095 106.0954 2435.707 4.252792 -4.269333 36.56481 0.09386685 -21.18865 -6.199133 -0 14.90985 -0 -10.40983 2.91796 0.06012102 -5.726125 13.6577 -10.94415 -0 9.493634 -0 0.551264 -20.53041 15.87281 -0.3581752 -0.5364965 4.933839 -0.01974188 14.27899 -7.100508 0.7600601 22.35322 4.391464 4.268653 -18.4837 3.728026 -1.517496 -21.27369 11.70258 93.13794 25.51201 -19.38991 -0 0 14.13285 -21.05338 8.558417 4.408746 6.692639 -26.39998 -8.965694 -86.41583 8.494617 15.37898 0 0 -19.74011 16.91207 13.48096 -11.94869
993.9516 105.0087 2439.466 3.152178 -2.614908 36.6611 0.7633099 -24.27219 -5.200791 -0 11.85187 -0 -10.29841 1.210538 0.2691954 -6.111909 14.58105 -11.56161 -0 8.828077 -0 3.240412 -20.62896 16.57203 -0.3419359 -0.7037702 5.015879 0.2039256 14.33805 -7.517274 0.6100282 22.20098 4.322492 4.181638 -18.64028 3.532373 -1.838507 -21.31414 11.70341 93.65744 25.16624 -20.25021 -0 0 14.04475 -20.80686 8.450325 3.843502 6.862144 -26.96533 -8.988599 -86.04198 8.142766 14.91842 0 0 -21.37429 17.03993 13.19595 -12.38189
996.6838 104.0364 2442.902 1.719733 -0.8116988 36.80259 2.015453 -27.05174 -2.768116 -0 11.84434 -0 -9.732188 -0.93749 0.257256 -6.450267 14.70516 -12.97969 -0 7.965124 -0 6.601731 -20.23462 18.24029 -0.3089005 -0.8620942 5.154906 0.3972182 14.4344 -7.864522 0.4763504 22.05831 4.216089 4.077315 -18.75036 3.329078 -2.131516 -21.47853 11.72301 94.0654 24.81358 -20.89483 -0 0 14.13695 -20.60508 8.361563 3.387053 6.931136 -27.42921 -9.042706 -85.8351 7.83135 14.83492 0 0 -22.50264 17.07417 12.9468 -12.63261
999.156 103.272 2445.874 0.1405956 0.7737633 37.02556 3.801885 -29.10485 0.9885967 -0 15.07682 -0 -8.538941 -3.567878 -0.1217692 -6.682081 13.93779 -15.26096 -0 6.979943 -0 9.658831 -19.63442 20.80716 -0.257282 -0.9738942 5.358052 0.5125977 14.59488 -8.053206 0.3867579 21.9466 4.071739 3.981991 -18.75857 3.131593 -2.308282 -21.80009 11.77785 94.2328 24.51576 -21.12755 -0 0 14.48575 -20.49502 8.332216 3.156456 6.830859 -27.68968 -9.171038 -85.91358 7.627374 15.33299 0 0 -22.67215 16.98067 12.78548 -12.56893
1001.394 102.7056 2448.395 -1.218569 1.767789 37.30231 5.583959 -30.37508 4.671494 -0 19.36363 -0 -7.21097 -5.864991 -0.6489386 -6.773619 12.80293 -17.63466 -0 6.283836 -0 11.15594 -19.4644 23.27645 -0.1999363 -1.006774 5.578684 0.5180553 14.77948 -8.023561 0.3636265 21.89024 3.929658 3.924545 -18.65248 2.99063 -2.306907 -22.21386 11.85992 94.08977 24.3609 -20.85433 -0 0 15.0357 -20.4976 8.378377 3.229312 6.571703 -27.66426 -9.342838 -86.28469 7.585224 16.3464 0 0 -21.76099 16.77539 12.75429 -12.17681
1003.544 102.2215 2450.714 -2.112858 2.202801 37.59765 6.72697 -31.44272 6.634981 -0 21.37206 -0 -6.497871 -6.680614 -0.957409 -6.694692 12.18096 -18.85829 -0 6.160119 -0 10.9052 -19.99239 24.25637 -0.1647297 -0.9404044 5.68646 0.4092165 14.86324 -7.783307 0.4260467 21.92643 3.869899 3.916689 -18.50949 3.010261 -2.149643 -22.49723 11.91943 93.7253 24.44034 -20.20367 -0 0 15.48225 -20.6104 8.463792 3.582558 6.29487 -27.32847 -9.426014 -86.74302 7.736525 17.32156 0 0 -20.26279 16.56396 12.88335 -11.67652
1005.772 101.7074 2453.116 -2.624985 2.378864 37.92471 7.210753 -32.65482 6.936748 -0 20.55731 -0 -6.387658 -6.091856 -1.01525 -6.493225 12.29836 -18.7572 -0 6.509763 -0 9.852325 -20.72005 23.69075 -0.1691979 -0.7851454 5.592834 0.2183922 14.77919 -7.418511 0.5696702 22.06816 3.926637 3.950482 -18.42029 3.228175 -1.920506 -22.46784 11.91388 93.32417 24.74751 -19.45375 -0 0 15.53499 -20.80885 8.539574 4.078878 6.144221 -26.78269 -9.346534 -87.04284 8.056227 17.69273 0 0 -18.87678 16.45998 13.15392 -11.33916
1008.165 101.1417 2455.735 -2.99504 2.496635 38.31103 7.443258 -33.8646 6.650469 -0 18.68411 -0 -6.446835 -5.017373 -0.9814206 -6.266731 12.75743 -18.11648 -0 7.185726 -0 8.745026 -21.21791 22.53556 -0.1941498 -0.621722 5.406722 0.04296855 14.623 -7.100522 0.7200619 22.23416 4.026633 3.989383 -18.39889 3.49807 -1.732539 -22.25399 11.86757 93.04381 25.08617 -18.89323 -0 0 15.31427 -20.98832 8.585234 4.48899 6.113097 -26.28483 -9.19612 -87.14175 8.389598 17.56204 0 0 -18.01189 16.45434 13.4289 -11.2125
1010.76 100.5521 2458.616 -3.371199 2.613313 38.7732 7.682879 -34.94621 6.34222 -0 16.80295 -0 -6.502312 -3.941059 -0.9367133 -6.038738 13.30138 -17.40975 -0 8.164524 -0 7.68721 -21.42612 21.26461 -0.2032459 -0.5388012 5.304921 -0.0319915 14.53634 -6.961887 0.7965406 22.32016 4.069691 3.988947 -18.41366 3.64301 -1.671156 -22.13444 11.83849 92.9509 25.24212 -18.65973 -0 0 15.16354 -21.05682 8.599694 4.66006 6.104521 -26.04402 -9.104697 -87.15352 8.56132 17.4309 0 0 -17.67977 16.46283 13.56673 -11.18666
1013.586 99.97231 2461.787 -3.784062 2.713741 39.31646 7.977783 -35.82237 6.09241 -0 15.11292 -0 -6.558614 -2.932129 -0.9083844 -5.784113 13.89491 -16.69015 -0 9.54997 -0 6.50883 -21.34835 19.8593 -0.1833667 -0.5347993 5.324925 -0.01899944 14.54705 -6.971212 0.8036794 22.32084 4.032699 3.935711 -18.44287 3.654073 -1.726676 -22.20056 11.84493 92.994 25.20562 -18.64507 -0 0 15.21 -21.03111 8.593682 4.646883 6.056965 -26.01204 -9.091796 -87.17486 8.574951 17.54137 0 0 -17.60518 16.43704 13.57861 -11.16544
1016.675 99.44579 2465.289 -4.230382 2.762239 39.93529 8.332971 -36.36515 5.902254 -0 13.70979 -0 -6.644261 -2.010108 -0.9160736 -5.472016 14.52683 -15.92923 -0 11.55037 -0 5.021856 -20.91578 18.22412 -0.1444525 -0.5449369 5.388468 0.01715007 14.58788 -7.010252 0.8010005 22.30285 3.955236 3.840394 -18.48652 3.641747 -1.833845 -22.35861 11.86522 93.07597 25.10756 -18.64424 -0 0 15.34863 -20.97519 8.583171 4.600596 5.963861 -25.99589 -9.090217 -87.22976 8.565143 17.80971 0 0 -17.48765 16.37851 13.57309 -11.11233
